<svg version="1.1" id="Layer_1" xmlns="http://www.w3.org/2000/svg" xmlns:xlink="http://www.w3.org/1999/xlink" x="0px" y="0px"
	 width="100%" viewBox="0 0 572 512" enable-background="new 0 0 572 512" xml:space="preserve">
<path fill="#000000" opacity="1.000000" stroke="none" 
	d="
M573.000000,88.000000 
	C573.000000,229.545547 573.000000,371.091095 573.000000,513.000000 
	C544.313477,513.000000 515.625366,513.000000 486.151367,512.681152 
	C486.260010,511.574036 487.050537,510.597870 488.069214,510.033569 
	C490.849487,508.493408 494.940735,507.856567 496.326721,505.548981 
	C499.856567,499.671967 509.320984,497.816864 507.931946,488.617798 
	C507.853119,488.095917 509.297791,487.363800 510.003479,486.697784 
	C510.672363,486.066589 511.745483,485.471710 511.876556,484.726440 
	C512.702454,480.030182 513.600342,475.316498 513.934204,470.570587 
	C514.485352,462.733887 513.122925,455.314514 510.425049,447.730042 
	C508.372986,441.961182 506.526550,436.941010 501.008667,433.524658 
	C498.275970,431.002441 495.336609,429.078705 492.927582,426.632690 
	C486.913757,420.526520 478.943665,419.777985 471.311493,419.231262 
	C465.527252,418.816986 459.472015,419.761688 453.626312,420.346069 
	C445.800476,421.128418 441.683411,426.426453 435.976105,429.517151 
	C425.917084,434.964447 421.390198,445.745178 419.644867,455.752045 
	C418.061584,464.829620 415.632294,475.580994 422.759308,484.440704 
	C423.182556,484.966858 423.018127,486.027893 422.999359,486.837036 
	C422.909943,490.692017 424.547455,493.302094 427.730347,495.668701 
	C430.369751,497.631165 431.937317,500.975281 434.318695,503.370331 
	C435.481537,504.539917 437.416626,504.941681 439.375793,505.763794 
	C441.818573,507.259949 443.986359,508.565460 445.903900,510.170074 
	C446.583069,510.738403 446.652313,512.035583 447.000000,513.000000 
	C363.645782,513.000000 280.291534,513.000000 196.033966,512.795776 
	C195.945602,511.721863 196.618057,510.607849 197.604645,510.032196 
	C199.789551,508.757324 202.407181,508.103546 204.359375,506.572906 
	C210.350204,501.875641 214.463303,495.906250 218.058456,489.011353 
	C221.717819,481.993347 224.262909,475.161255 223.910950,467.398956 
	C223.727081,463.343567 222.241013,459.344025 222.087769,455.291107 
	C221.754959,446.488922 216.737000,440.074890 211.472946,433.934753 
	C208.827698,430.849243 204.493851,429.218597 201.818939,426.149658 
	C197.153946,420.797485 190.730911,419.721161 184.693024,419.251617 
	C176.223740,418.593018 167.454163,417.721100 159.149811,421.016266 
	C155.481201,422.471954 149.910522,423.110596 148.619263,425.775391 
	C145.690292,431.819946 136.575974,432.720215 136.882629,440.844269 
	C132.049774,442.000488 133.892960,447.329071 131.203140,449.977570 
	C129.662308,451.494690 128.030746,454.025513 128.181152,455.964935 
	C128.869553,464.842072 125.422974,474.129578 130.924332,482.611176 
	C132.367813,484.836639 131.870789,488.391266 133.428909,490.457886 
	C137.220093,495.486298 141.683838,500.009125 145.908051,504.707397 
	C146.370743,505.221954 147.016617,505.877533 147.613617,505.916656 
	C151.960205,506.201385 153.676483,510.661438 157.350571,511.977905 
	C157.355225,511.979523 157.122070,512.644714 157.000000,513.000000 
	C105.036018,513.000000 53.072029,513.000000 1.000000,513.000000 
	C1.000000,354.645782 1.000000,196.291550 1.246303,37.109383 
	C2.299117,36.788322 3.145150,37.242359 3.905417,37.811054 
	C7.525994,40.519321 10.784267,44.067932 14.823853,45.760223 
	C18.887791,47.462719 23.711269,47.822330 28.218390,47.908428 
	C41.661606,48.165237 55.119656,48.237526 68.557030,47.856789 
	C72.726776,47.738644 74.894844,50.305080 76.548546,52.691658 
	C78.283531,55.195549 78.363564,58.846195 79.094223,62.450714 
	C78.716095,72.997955 80.920166,82.402168 85.769341,90.771591 
	C85.565071,95.303284 83.636719,100.868507 85.595390,104.010971 
	C88.067192,107.976677 87.584427,111.528717 88.034210,115.362778 
	C88.160370,116.438126 88.604683,117.503700 89.049797,118.508774 
	C90.252121,121.223648 92.343605,123.820267 92.630737,126.613037 
	C93.476196,134.836441 93.612976,143.132431 94.051308,151.398727 
	C94.076439,151.872711 94.305878,152.338943 94.459061,152.802567 
	C95.692307,156.535034 96.930077,160.265991 98.094711,164.428543 
	C97.660126,170.988174 101.426735,176.647049 100.091507,182.902832 
	C100.014137,183.265305 100.561089,183.729492 100.725243,184.179977 
	C102.175911,188.160843 103.915596,192.070541 104.954544,196.157684 
	C105.994621,200.249298 106.752159,204.507858 106.877113,208.715698 
	C107.088615,215.838440 108.503563,222.379318 111.120842,229.160126 
	C113.430779,235.144684 112.611366,242.337097 113.134613,249.381226 
	C114.379631,252.212082 115.663780,254.657898 116.970932,257.404755 
	C116.981567,258.107910 116.969200,258.510010 116.632797,259.114502 
	C117.538345,265.024567 119.024620,270.691956 119.928268,276.450775 
	C120.912529,282.723389 121.356308,289.080872 122.035095,295.401398 
	C122.052826,295.566467 122.019417,295.752075 122.083649,295.894958 
	C125.035408,302.460907 125.898705,309.368225 126.126656,316.523926 
	C126.265816,320.891876 129.096573,324.986115 128.087280,329.639374 
	C128.012604,329.983612 128.382462,330.542511 128.699387,330.835083 
	C131.748886,333.650024 132.603882,337.211121 133.179703,341.228180 
	C133.605927,344.201660 135.382538,347.095673 136.997589,349.758148 
	C139.475555,353.843201 142.331787,357.698761 145.176483,361.870239 
	C145.987106,361.513336 147.321945,360.925598 149.476013,359.977173 
	C148.892822,362.368927 148.531357,363.851379 148.250137,365.004700 
	C150.557343,366.419128 152.759659,367.769226 155.099594,369.429749 
	C161.094727,375.564880 167.491898,380.379211 176.148941,381.044128 
	C176.746506,381.090027 177.306458,381.520844 177.901657,381.719482 
	C182.199600,383.153687 186.486526,385.748383 190.805771,385.805817 
	C216.198044,386.143463 241.598175,385.888489 267.459869,385.904236 
	C305.281464,385.927917 342.638855,385.880585 380.460449,385.903870 
	C418.037048,385.981262 455.149475,385.998749 492.261871,385.972229 
	C494.920837,385.970337 497.448212,386.498047 499.687714,383.527252 
	C501.099060,381.655090 504.672729,381.412903 507.062958,380.519348 
	C508.275299,378.705750 509.732330,377.057098 510.561523,375.137299 
	C511.402161,373.190948 511.390381,370.887787 512.153809,368.894836 
	C515.888916,359.143646 513.724854,350.915527 506.261322,343.544403 
	C501.563141,338.904358 495.302734,337.498383 489.873810,337.331818 
	C466.601685,336.617706 443.292480,337.112396 419.537598,337.099304 
	C413.084686,337.023224 407.090912,336.998108 401.097229,337.008057 
	C372.396729,337.055695 343.696259,337.112793 314.531647,337.099060 
	C279.274628,337.019836 244.478653,336.745575 209.690674,337.153168 
	C198.985153,337.278564 189.155289,335.672668 180.358643,329.674438 
	C180.577911,328.629974 180.827026,327.598999 180.427307,327.163361 
	C176.575638,322.965790 175.019440,317.991608 174.969849,312.394897 
	C174.951035,310.273315 175.311249,306.740509 174.353134,306.290619 
	C171.051300,304.740234 172.417358,302.190002 171.951508,299.976776 
	C171.384811,297.284363 170.481079,294.662903 169.862030,291.662170 
	C170.672852,291.112976 171.344788,290.912384 172.401276,290.832947 
	C173.856659,290.913910 174.927490,290.873657 176.462341,290.904205 
	C201.616730,290.927765 226.307098,290.880524 251.461517,290.904236 
	C282.616241,290.927795 313.306885,290.880402 344.461609,290.903778 
	C369.282715,290.927704 393.639740,290.880859 418.460999,290.904327 
	C432.939758,290.013611 446.946259,292.174469 461.084564,289.370941 
	C470.079803,287.587219 479.718231,289.633301 488.199341,284.083252 
	C493.511047,280.607269 500.123566,278.846985 504.837097,274.789093 
	C513.125854,267.653198 521.245300,259.865479 526.035645,249.838654 
	C529.518494,242.548630 531.539673,234.537491 533.943420,226.764664 
	C535.098206,223.030472 535.528198,219.078400 536.472839,215.271255 
	C537.539368,210.972687 538.869446,206.739899 539.966736,202.448303 
	C540.288452,201.190155 539.712097,199.435287 540.392151,198.579254 
	C544.778320,193.058533 542.924255,185.613998 546.693542,179.658264 
	C548.792847,176.341278 547.939331,171.161469 548.451843,166.825317 
	C548.504578,166.379166 548.738770,165.921936 548.991089,165.536911 
	C551.488586,161.725922 553.622009,157.810593 552.920776,152.595917 
	C553.670593,150.363083 554.500977,148.570465 554.960571,146.687347 
	C555.810120,143.206238 555.306030,137.790146 557.389771,136.531860 
	C562.537537,133.423355 557.348450,127.501671 561.857422,124.635468 
	C562.790466,124.042336 561.484619,120.599304 562.224854,118.915665 
	C565.639343,111.149475 567.694519,103.191116 568.091431,94.655075 
	C568.209351,92.120132 568.662415,88.191460 573.000000,88.000000 
z"/>
<path fill="#2A70E3" opacity="1.000000" stroke="none" 
	d="
M573.000000,87.531342 
	C568.662415,88.191460 568.209351,92.120132 568.091431,94.655075 
	C567.694519,103.191116 565.639343,111.149475 562.224854,118.915665 
	C561.484619,120.599304 562.790466,124.042336 561.857422,124.635468 
	C557.348450,127.501671 562.537537,133.423355 557.389771,136.531860 
	C555.306030,137.790146 555.810120,143.206238 554.960571,146.687347 
	C554.500977,148.570465 553.670593,150.363083 552.616272,152.414612 
	C551.774475,151.092880 551.528687,149.446701 550.803528,148.049347 
	C550.291626,147.062958 548.622131,145.570297 548.335083,145.742966 
	C544.886963,147.816818 540.324097,149.476547 538.637756,152.627899 
	C537.011475,155.667053 535.566895,157.201385 532.477966,157.952789 
	C529.281677,158.730286 527.852905,160.262894 531.164917,162.941376 
	C531.720032,163.390305 532.068665,164.094589 533.463745,165.936676 
	C530.351562,165.554062 528.541504,165.269989 526.720276,165.126556 
	C525.185486,165.005676 523.637878,165.048172 522.095947,165.018341 
	C522.365601,166.607071 522.679810,168.189926 522.890442,169.786453 
	C523.050476,170.999344 523.078735,172.229614 523.165649,173.452164 
	C521.832275,173.506226 520.473694,173.741043 519.173401,173.559097 
	C518.065918,173.404144 517.025452,172.769516 515.955383,172.347092 
	C515.745300,172.710938 515.535217,173.074799 515.325134,173.438644 
	C516.685059,174.621094 518.044922,175.803528 520.322266,177.783707 
	C516.854980,179.232727 514.193909,180.678757 511.349640,181.442719 
	C508.301636,182.261398 506.702332,183.246124 507.580139,186.889496 
	C508.255310,189.691879 502.013550,197.774765 499.632935,199.055054 
	C497.742493,200.071732 495.671051,201.859756 494.972809,203.776321 
	C492.922302,209.404663 489.480774,212.764755 483.545471,214.258392 
	C481.280945,214.828247 477.624817,218.024277 477.914337,219.225372 
	C479.459717,225.637436 473.528137,227.728317 471.062805,231.199341 
	C465.378418,239.202560 457.273560,245.504089 451.723389,253.577209 
	C449.241577,257.187286 446.938965,259.614868 443.156708,260.826050 
	C440.757111,261.594452 439.503448,262.593170 440.807739,265.047577 
	C442.819824,268.833862 440.476349,269.926819 437.508484,270.304718 
	C433.232452,270.849304 430.060699,272.165985 431.311859,277.809509 
	C428.788177,277.306000 426.829285,276.915131 424.286743,276.407837 
	C424.708313,277.872925 424.752380,278.889557 425.244751,279.591858 
	C427.768585,283.191620 425.624481,284.722931 422.508911,284.824860 
	C418.083740,284.969635 417.790802,287.557434 417.996765,290.834015 
	C393.639740,290.880859 369.282715,290.927704 344.496887,290.530457 
	C344.119476,288.316101 344.948090,285.849884 344.091187,284.892975 
	C339.769043,280.066315 343.570404,277.939850 346.686096,275.341095 
	C348.429016,273.887329 349.883575,272.087616 351.628052,270.636017 
	C353.677551,268.930634 356.019745,267.567322 358.004059,265.796814 
	C359.211761,264.719269 360.381470,263.275269 360.842224,261.773193 
	C361.328339,260.188477 360.951202,258.338928 360.951202,257.775726 
	C365.809174,256.918274 370.072357,256.165833 374.586731,255.369034 
	C373.062256,249.807846 374.328888,246.282639 377.399536,242.951706 
	C379.386627,240.796143 380.793304,237.987564 381.998016,235.267014 
	C382.919250,233.186707 383.330933,230.759781 386.312744,232.001694 
	C390.418518,233.711746 392.009186,230.673019 393.939423,228.296844 
	C395.270416,226.658325 396.890900,224.987244 397.468475,223.057343 
	C398.895508,218.288651 400.102844,214.015335 405.754913,211.995422 
	C407.506378,211.369492 407.722961,206.654907 408.813019,203.879318 
	C409.311676,202.609665 409.950256,200.934341 411.000244,200.428375 
	C414.123444,198.923386 417.575378,198.098999 420.692444,196.583939 
	C421.636902,196.124863 422.405151,194.284348 422.406891,193.075348 
	C422.416046,186.778198 426.673370,181.795959 432.983795,180.974350 
	C434.151520,180.822296 435.283478,180.395432 437.550781,179.803085 
	C435.162537,178.390854 433.855682,177.618073 431.212677,176.055176 
	C433.895660,175.526321 435.220520,175.025925 436.534637,175.052628 
	C439.983673,175.122696 442.176331,174.526062 443.486420,170.451462 
	C444.738098,166.558655 450.383728,164.957520 450.442719,159.797821 
	C450.445740,159.534256 451.886475,159.142288 452.684296,159.056747 
	C457.011475,158.592667 457.815002,156.432724 455.594208,152.957413 
	C453.929962,150.352997 454.438385,148.705200 457.319000,147.557419 
	C458.180084,147.214325 459.040833,146.413177 459.499451,145.596100 
	C461.518494,141.999130 463.584381,140.437302 465.809906,144.931671 
	C473.509125,141.641861 471.607330,129.801392 479.158112,129.271851 
	C482.290985,124.886200 484.533600,122.033882 486.461975,118.982979 
	C489.700470,113.859276 493.677368,109.876106 500.096191,109.254723 
	C500.714752,109.786499 501.237122,110.063248 501.759521,110.339989 
	C501.861359,110.070053 501.963196,109.800117 502.065033,109.530182 
	C501.376678,109.353554 500.688354,109.176933 500.190582,108.689667 
	C501.946075,103.778091 503.699799,99.230011 505.008362,94.557281 
	C505.854706,91.534996 506.914551,90.662888 509.867676,92.334007 
	C513.786072,94.551384 515.102234,93.762375 515.322815,89.321930 
	C515.508789,85.579124 517.199097,83.179253 520.760071,81.851707 
	C522.788757,81.095406 524.621582,79.813705 526.607788,78.733147 
	C524.174988,77.323013 522.281067,76.405853 520.695679,75.110947 
	C520.458740,74.917419 521.756958,71.936218 522.196838,71.973915 
	C524.530212,72.173874 526.816223,72.925880 529.285034,73.527161 
	C531.491333,70.507126 534.018860,67.001930 536.594604,63.532570 
	C540.278015,58.571278 544.114258,53.718307 547.652710,48.656551 
	C549.530518,45.970364 549.758362,41.776348 554.750854,42.394939 
	C555.316467,42.465023 556.239990,39.646305 557.353271,38.106636 
	C558.666626,39.053917 559.586243,40.101517 560.589478,41.061680 
	C563.137573,43.500271 565.910400,45.346901 566.705078,49.556320 
	C567.144775,51.885433 567.779968,57.003956 573.000000,56.000000 
	C573.000000,66.354225 573.000000,76.708458 573.000000,87.531342 
z"/>
<path fill="#000000" opacity="1.000000" stroke="none" 
	d="
M573.000000,55.531342 
	C567.779968,57.003956 567.144775,51.885433 566.705078,49.556320 
	C565.910400,45.346901 563.137573,43.500271 560.589478,41.061680 
	C559.586243,40.101517 558.666626,39.053917 556.972046,38.025101 
	C555.716919,37.455948 555.291504,36.748672 554.666260,36.383911 
	C546.986694,31.903688 538.091675,30.824263 529.775818,30.344507 
	C511.573456,29.294384 493.263397,30.111868 474.533203,30.098457 
	C448.045258,30.075825 422.021423,30.121311 395.533630,30.097721 
	C369.712128,30.074591 344.354675,30.120533 318.533142,30.097977 
	C287.045105,30.075340 256.021118,30.121204 224.533142,30.098204 
	C191.839249,30.018288 159.609375,30.009655 127.379486,29.991899 
	C124.603462,29.990370 121.827477,29.928417 118.922676,29.595791 
	C118.016708,28.482475 116.535660,27.629814 116.577339,26.859547 
	C116.834869,22.100163 112.701210,21.196188 109.957764,18.624058 
	C108.946960,17.508457 108.053169,16.740944 107.417679,15.654298 
	C107.115601,10.476727 102.203018,10.123469 99.308739,8.377087 
	C95.977646,6.367135 93.048195,2.328140 88.201904,3.339900 
	C88.134598,2.559934 88.067299,1.779967 88.000000,1.000000 
	C249.666672,1.000000 411.333344,1.000000 573.000000,1.000000 
	C573.000000,19.091799 573.000000,37.077240 573.000000,55.531342 
z"/>
<path fill="#2B72E4" opacity="1.000000" stroke="none" 
	d="
M157.468658,513.000000 
	C157.122070,512.644714 157.355225,511.979523 157.350571,511.977905 
	C153.676483,510.661438 151.960205,506.201385 147.613617,505.916656 
	C147.016617,505.877533 146.370743,505.221954 145.908051,504.707397 
	C141.683838,500.009125 137.220093,495.486298 133.428909,490.457886 
	C131.870789,488.391266 132.367813,484.836639 130.924332,482.611176 
	C125.422974,474.129578 128.869553,464.842072 128.181152,455.964935 
	C128.030746,454.025513 129.662308,451.494690 131.203140,449.977570 
	C133.892960,447.329071 132.049774,442.000488 136.882629,440.844269 
	C136.575974,432.720215 145.690292,431.819946 148.619263,425.775391 
	C149.910522,423.110596 155.481201,422.471954 159.149811,421.016266 
	C167.454163,417.721100 176.223740,418.593018 184.693024,419.251617 
	C190.730911,419.721161 197.153946,420.797485 201.818939,426.149658 
	C204.493851,429.218597 208.827698,430.849243 211.472946,433.934753 
	C216.737000,440.074890 221.754959,446.488922 222.087769,455.291107 
	C222.241013,459.344025 223.727081,463.343567 223.910950,467.398956 
	C224.262909,475.161255 221.717819,481.993347 218.058456,489.011353 
	C214.463303,495.906250 210.350204,501.875641 204.359375,506.572906 
	C202.407181,508.103546 199.789551,508.757324 197.604645,510.032196 
	C196.618057,510.607849 195.945602,511.721863 195.565308,512.795776 
	C183.312439,513.000000 170.624878,513.000000 157.468658,513.000000 
z"/>
<path fill="#3980F4" opacity="1.000000" stroke="none" 
	d="
M110.074768,18.972141 
	C112.701210,21.196188 116.834869,22.100163 116.577339,26.859547 
	C116.535660,27.629814 118.016708,28.482475 118.631866,29.799255 
	C118.003204,30.458178 117.533722,30.758904 117.070335,30.749762 
	C111.180252,30.633556 111.251236,30.610497 112.214890,36.421715 
	C112.401627,37.547783 112.213120,39.353161 111.484596,39.906769 
	C108.382111,42.264317 105.136475,44.507710 101.690834,46.310673 
	C99.727180,47.338169 97.277451,47.436726 94.092720,48.174580 
	C92.163788,51.434967 96.986702,51.497025 98.650848,53.412407 
	C97.695900,56.737541 95.934990,56.856377 92.990135,55.869827 
	C88.826073,54.474823 84.909134,54.859264 82.503998,59.521091 
	C81.934044,60.625805 80.307411,61.185352 79.166855,61.995674 
	C78.363564,58.846195 78.283531,55.195549 76.548546,52.691658 
	C74.894844,50.305080 72.726776,47.738644 68.557030,47.856789 
	C55.119656,48.237526 41.661606,48.165237 28.218390,47.908428 
	C23.711269,47.822330 18.887791,47.462719 14.823853,45.760223 
	C10.784267,44.067932 7.525994,40.519321 3.905417,37.811054 
	C3.145150,37.242359 2.299117,36.788322 1.246303,36.640724 
	C1.000000,28.312437 1.000000,19.624874 1.271207,10.832605 
	C4.416119,7.957569 7.306761,5.204178 10.128964,2.382340 
	C10.337857,2.173474 10.054509,1.472302 10.000000,1.000000 
	C11.714358,1.000000 13.428718,1.000000 15.381340,1.332451 
	C16.079737,1.443268 16.539867,1.221634 17.000000,1.000000 
	C37.020893,1.000000 57.041790,1.000000 77.497513,1.392702 
	C78.621559,1.523603 79.310783,1.261802 80.000000,1.000000 
	C82.370560,1.000000 84.741112,1.000000 87.555832,1.000000 
	C88.067299,1.779967 88.134598,2.559934 88.201904,3.339900 
	C93.048195,2.328140 95.977646,6.367135 99.308739,8.377087 
	C102.203018,10.123469 107.115601,10.476727 107.160034,15.720037 
	C105.250549,20.096321 108.516907,18.512112 110.074768,18.972141 
z"/>
<path fill="#2368DA" opacity="1.000000" stroke="none" 
	d="
M501.043427,433.885437 
	C506.526550,436.941010 508.372986,441.961182 510.425049,447.730042 
	C513.122925,455.314514 514.485352,462.733887 513.934204,470.570587 
	C513.600342,475.316498 512.702454,480.030182 511.876556,484.726440 
	C511.745483,485.471710 510.672363,486.066589 510.003479,486.697784 
	C509.297791,487.363800 507.853119,488.095917 507.931946,488.617798 
	C509.320984,497.816864 499.856567,499.671967 496.326721,505.548981 
	C494.940735,507.856567 490.849487,508.493408 488.069214,510.033569 
	C487.050537,510.597870 486.260010,511.574036 485.682678,512.681152 
	C473.312439,513.000000 460.624878,513.000000 447.468658,513.000000 
	C446.652313,512.035583 446.583069,510.738403 445.903900,510.170074 
	C443.986359,508.565460 441.818573,507.259949 439.470398,505.431000 
	C439.742676,504.219971 440.228424,502.776367 440.855713,502.711975 
	C445.126160,502.273621 445.746765,498.307953 448.012115,495.906372 
	C451.114807,492.617096 454.495331,487.790680 458.229736,487.311890 
	C464.048065,486.565887 463.194092,483.379608 464.248291,479.824799 
	C465.103760,476.940125 467.371185,474.208679 469.645203,472.087799 
	C471.749268,470.125427 475.352020,469.611389 477.121002,467.483643 
	C480.175903,463.809082 482.083984,459.204498 484.927734,455.323090 
	C487.012878,452.477112 489.382812,448.982391 492.402710,447.851776 
	C499.331696,445.257629 501.253021,440.445251 501.043427,433.885437 
z"/>
<path fill="#000000" opacity="1.000000" stroke="none" 
	d="
M9.508951,1.000000 
	C10.054509,1.472302 10.337857,2.173474 10.128964,2.382340 
	C7.306761,5.204178 4.416119,7.957569 1.271207,10.363949 
	C1.000000,7.082645 1.000000,4.165290 1.000000,1.000000 
	C3.670005,1.000000 6.343954,1.000000 9.508951,1.000000 
z"/>
<path fill="#000000" opacity="1.000000" stroke="none" 
	d="
M79.666672,1.000000 
	C79.310783,1.261802 78.621559,1.523603 77.966171,1.392702 
	C78.444443,1.000000 78.888893,1.000000 79.666672,1.000000 
z"/>
<path fill="#000000" opacity="1.000000" stroke="none" 
	d="
M16.750000,1.000000 
	C16.539867,1.221634 16.079737,1.443268 15.809802,1.332451 
	C16.000000,1.000000 16.500000,1.000000 16.750000,1.000000 
z"/>
<path fill="#3177EA" opacity="1.000000" stroke="none" 
	d="
M318.997192,30.166477 
	C344.354675,30.120533 369.712128,30.074591 395.531494,30.481930 
	C395.390350,37.296917 390.652893,41.154331 386.444305,44.737301 
	C381.337067,49.085361 380.877716,48.545818 386.438843,52.769142 
	C385.395966,55.670784 383.908539,56.833912 380.995605,54.596214 
	C380.367706,54.113831 379.249786,54.017315 378.435211,54.166576 
	C378.149963,54.218849 377.737701,55.713100 377.995605,56.260517 
	C380.338623,61.234604 377.564941,61.898293 373.512177,62.141602 
	C370.271759,62.336143 367.424530,63.282318 369.256104,67.784218 
	C370.391449,70.574753 369.086609,71.696213 366.087402,71.652870 
	C365.058838,71.638008 363.899750,72.918457 363.001495,73.809853 
	C362.109985,74.694534 361.694824,76.227966 360.686737,76.799492 
	C353.162781,81.065163 349.730530,88.687080 345.341644,95.458839 
	C343.566010,98.198524 342.184967,100.512344 338.562561,101.365128 
	C336.326569,101.891518 334.063782,104.055984 332.677246,106.077728 
	C329.685822,110.439629 327.362183,115.253922 324.519745,119.727066 
	C323.705383,121.008614 322.009216,122.649841 320.787018,122.594284 
	C315.237854,122.341995 314.492279,126.359978 313.217896,130.147400 
	C312.712982,131.648041 311.967865,134.224426 311.178650,134.284180 
	C306.241425,134.657959 305.164703,138.847488 302.734161,141.795013 
	C301.565582,143.212143 299.569519,143.916153 298.093018,145.120621 
	C297.067230,145.957397 295.385284,147.268936 295.538849,148.074280 
	C297.076233,156.136612 290.768951,158.564148 285.586121,161.912354 
	C281.372284,158.797409 276.976227,156.260773 273.650085,152.719315 
	C268.601501,147.344009 263.146484,144.384323 255.532257,144.837814 
	C251.328140,145.088196 247.551376,145.742859 244.688934,148.684387 
	C238.641525,154.898865 234.043243,161.779388 239.124542,170.757996 
	C240.974564,174.026978 243.006378,178.564880 245.953552,179.556320 
	C252.140991,181.637817 254.174881,187.103989 257.863892,191.195496 
	C254.759766,195.785110 251.369186,199.896179 249.265259,204.584641 
	C248.107819,207.163925 247.356110,208.855606 244.435562,209.216873 
	C241.980835,209.520538 240.601440,210.461533 240.311249,213.640289 
	C239.691437,220.429764 236.770660,222.622528 230.995377,222.765854 
	C229.240601,226.139694 228.340729,229.845490 225.989273,231.839813 
	C223.599045,233.867065 219.777954,234.207184 216.569046,235.290985 
	C219.107208,241.617264 218.641937,244.388641 213.230515,246.102463 
	C207.363434,247.960587 205.665817,252.098297 203.755066,257.094543 
	C202.726700,259.783478 199.784348,261.906494 197.361603,263.857788 
	C193.598785,266.888367 186.576279,265.992096 186.315109,273.339355 
	C186.282547,274.254974 184.434052,275.054016 183.527786,276.003296 
	C182.303833,277.285370 180.675797,278.476898 180.106628,280.031464 
	C178.606934,284.127686 176.295181,286.434753 171.632294,286.096191 
	C169.960892,285.974792 167.135635,285.477997 168.034500,289.316528 
	C168.612656,290.423187 169.167908,291.216949 169.723145,292.010742 
	C170.481079,294.662903 171.384811,297.284363 171.951508,299.976776 
	C172.417358,302.190002 171.051300,304.740234 174.353134,306.290619 
	C175.311249,306.740509 174.951035,310.273315 174.969849,312.394897 
	C175.019440,317.991608 176.575638,322.965790 180.427307,327.163361 
	C180.827026,327.598999 180.577911,328.629974 180.039429,329.746277 
	C178.701843,330.911194 177.546631,331.597046 177.275681,332.537598 
	C175.827591,337.564453 174.444778,342.621460 173.345413,347.733856 
	C172.449158,351.901764 169.868759,353.682770 165.497253,354.448700 
	C166.217712,352.563934 166.745087,351.184296 167.371246,349.546204 
	C159.845108,351.315002 155.488220,356.979492 155.783997,363.763123 
	C155.861191,365.533203 155.254562,367.333099 154.961975,369.119324 
	C152.759659,367.769226 150.557343,366.419128 148.250137,365.004700 
	C148.531357,363.851379 148.892822,362.368927 149.476013,359.977173 
	C147.321945,360.925598 145.987106,361.513336 145.176483,361.870239 
	C142.331787,357.698761 139.475555,353.843201 136.997589,349.758148 
	C135.382538,347.095673 133.605927,344.201660 133.179703,341.228180 
	C132.603882,337.211121 131.748886,333.650024 128.699387,330.835083 
	C128.382462,330.542511 128.012604,329.983612 128.087280,329.639374 
	C129.096573,324.986115 126.265816,320.891876 126.126656,316.523926 
	C125.898705,309.368225 125.035408,302.460907 122.083649,295.894958 
	C122.019417,295.752075 122.052826,295.566467 122.035095,295.401398 
	C121.356308,289.080872 120.912529,282.723389 119.928268,276.450775 
	C119.024620,270.691956 117.538345,265.024567 116.877533,259.245850 
	C120.699493,256.380219 127.937225,257.292389 125.896790,249.685059 
	C130.278336,251.863129 131.825211,250.942215 133.025696,246.566147 
	C133.626251,244.377029 135.012802,242.286118 136.453125,240.476532 
	C138.017502,238.511063 140.057251,236.923965 142.627869,234.466110 
	C148.574707,234.395203 150.588684,232.595856 150.945633,225.085098 
	C151.115372,221.513336 152.506577,219.760284 156.085388,220.022354 
	C159.361755,220.262268 160.612396,218.867676 161.274780,215.568436 
	C163.416306,204.901733 171.843307,196.864166 181.443619,196.118332 
	C181.161636,194.497787 180.644745,192.908173 180.685013,191.332779 
	C180.718765,190.012604 180.992966,188.249969 181.864670,187.471405 
	C188.346268,181.682190 196.589859,177.653091 200.017609,168.857727 
	C200.231400,168.309204 201.068985,168.036560 201.445984,167.512924 
	C202.703598,165.766113 204.199921,164.099274 205.034103,162.156723 
	C207.547638,156.303497 210.102692,149.939499 216.679642,148.324417 
	C221.710831,147.088928 224.240982,145.512054 223.258179,140.221268 
	C224.699127,139.709259 226.600586,139.616318 227.002411,138.792191 
	C228.972198,134.752167 232.136917,134.898056 235.859085,135.187408 
	C236.940399,135.271469 238.660492,133.214859 239.242035,131.793503 
	C239.737198,130.583267 238.376068,128.534866 238.952515,127.450996 
	C240.822327,123.935356 242.787903,118.339081 245.482224,117.861275 
	C250.288696,117.008881 251.260193,114.274834 252.784683,111.002907 
	C253.678833,109.083817 254.775116,107.239273 255.951767,105.475471 
	C258.442413,101.742012 263.342255,99.881607 263.919098,94.493652 
	C264.057983,93.196312 266.923096,92.316017 268.282379,90.986252 
	C269.459320,89.834854 271.030334,88.360481 271.109528,86.954636 
	C271.312469,83.351936 273.469604,82.425461 276.324127,82.165443 
	C277.824738,82.028748 279.365356,82.331116 281.693329,82.490295 
	C274.595490,77.230415 274.424377,76.779160 278.484406,72.443840 
	C279.376221,71.491539 280.912415,70.905937 282.247314,70.650772 
	C285.902344,69.952103 289.608215,69.519409 293.911957,68.891205 
	C293.094543,66.937668 292.342438,65.140160 291.197998,62.405018 
	C293.192017,62.686020 294.364838,62.831841 295.530640,63.021019 
	C296.714111,63.213062 297.890625,63.447895 299.142242,63.677189 
	C299.355316,62.575329 299.602356,62.069660 299.514587,61.630959 
	C298.735016,57.733418 298.293854,54.523811 304.296234,55.719097 
	C306.982971,56.254120 311.375854,49.567635 311.749237,46.487156 
	C312.033783,44.139740 313.476227,41.915325 314.496521,39.678589 
	C315.952179,36.487556 317.492859,33.335300 318.997192,30.166477 
z"/>
<path fill="#2D73E5" opacity="1.000000" stroke="none" 
	d="
M474.997314,30.166576 
	C493.263397,30.111868 511.573456,29.294384 529.775818,30.344507 
	C538.091675,30.824263 546.986694,31.903688 554.666260,36.383911 
	C555.291504,36.748672 555.716919,37.455948 556.616333,38.085594 
	C556.239990,39.646305 555.316467,42.465023 554.750854,42.394939 
	C549.758362,41.776348 549.530518,45.970364 547.652710,48.656551 
	C544.114258,53.718307 540.278015,58.571278 536.594604,63.532570 
	C534.018860,67.001930 531.491333,70.507126 529.285034,73.527161 
	C526.816223,72.925880 524.530212,72.173874 522.196838,71.973915 
	C521.756958,71.936218 520.458740,74.917419 520.695679,75.110947 
	C522.281067,76.405853 524.174988,77.323013 526.607788,78.733147 
	C524.621582,79.813705 522.788757,81.095406 520.760071,81.851707 
	C517.199097,83.179253 515.508789,85.579124 515.322815,89.321930 
	C515.102234,93.762375 513.786072,94.551384 509.867676,92.334007 
	C506.914551,90.662888 505.854706,91.534996 505.008362,94.557281 
	C503.699799,99.230011 501.946075,103.778091 500.190582,108.689514 
	C500.000000,109.000000 500.000000,108.999695 500.000000,108.999695 
	C493.677368,109.876106 489.700470,113.859276 486.461975,118.982979 
	C484.533600,122.033882 482.290985,124.886200 479.158112,129.271851 
	C471.607330,129.801392 473.509125,141.641861 465.809906,144.931671 
	C463.584381,140.437302 461.518494,141.999130 459.499451,145.596100 
	C459.040833,146.413177 458.180084,147.214325 457.319000,147.557419 
	C454.438385,148.705200 453.929962,150.352997 455.594208,152.957413 
	C457.815002,156.432724 457.011475,158.592667 452.684296,159.056747 
	C451.886475,159.142288 450.445740,159.534256 450.442719,159.797821 
	C450.383728,164.957520 444.738098,166.558655 443.486420,170.451462 
	C442.176331,174.526062 439.983673,175.122696 436.534637,175.052628 
	C435.220520,175.025925 433.895660,175.526321 431.212677,176.055176 
	C433.855682,177.618073 435.162537,178.390854 437.550781,179.803085 
	C435.283478,180.395432 434.151520,180.822296 432.983795,180.974350 
	C426.673370,181.795959 422.416046,186.778198 422.406891,193.075348 
	C422.405151,194.284348 421.636902,196.124863 420.692444,196.583939 
	C417.575378,198.098999 414.123444,198.923386 411.000244,200.428375 
	C409.950256,200.934341 409.311676,202.609665 408.813019,203.879318 
	C407.722961,206.654907 407.506378,211.369492 405.754913,211.995422 
	C400.102844,214.015335 398.895508,218.288651 397.468475,223.057343 
	C396.890900,224.987244 395.270416,226.658325 393.939423,228.296844 
	C392.009186,230.673019 390.418518,233.711746 386.312744,232.001694 
	C383.330933,230.759781 382.919250,233.186707 381.998016,235.267014 
	C380.793304,237.987564 379.386627,240.796143 377.399536,242.951706 
	C374.328888,246.282639 373.062256,249.807846 374.586731,255.369034 
	C370.072357,256.165833 365.809174,256.918274 360.951202,257.775726 
	C360.951202,258.338928 361.328339,260.188477 360.842224,261.773193 
	C360.381470,263.275269 359.211761,264.719269 358.004059,265.796814 
	C356.019745,267.567322 353.677551,268.930634 351.628052,270.636017 
	C349.883575,272.087616 348.429016,273.887329 346.686096,275.341095 
	C343.570404,277.939850 339.769043,280.066315 344.091187,284.892975 
	C344.948090,285.849884 344.119476,288.316101 344.032806,290.459656 
	C313.306885,290.880402 282.616241,290.927795 251.494873,290.541321 
	C252.797668,285.108765 254.045074,279.796936 261.013245,279.494293 
	C262.375153,279.435181 264.114319,277.930939 264.906769,276.624512 
	C268.565948,270.592163 270.619904,263.286926 278.429657,260.750824 
	C279.032471,260.555084 279.285370,259.391571 279.781250,258.738953 
	C283.242432,254.183945 286.724884,249.645096 290.200378,245.100952 
	C291.334961,243.617493 292.469055,242.133698 293.980804,240.156342 
	C299.174591,241.203400 300.342407,240.086594 300.200623,233.215500 
	C300.178345,232.136459 300.793640,231.044250 301.519775,229.974487 
	C303.589539,230.651138 305.864777,230.836578 306.811279,232.054565 
	C310.744751,237.116150 315.646301,239.180359 321.877808,237.969116 
	C324.416290,237.475708 327.119476,237.079147 329.341278,235.883301 
	C332.660950,234.096542 336.556732,232.276474 338.545471,229.343613 
	C343.094330,222.635254 346.480804,215.152069 350.625031,208.152710 
	C356.221771,198.700256 362.032288,189.372482 367.868164,180.064651 
	C369.725311,177.102646 372.184998,174.510742 373.965424,171.510040 
	C377.178650,166.094635 380.079773,160.494370 383.126465,154.979706 
	C385.742920,150.243851 388.314423,145.481277 391.029266,140.802155 
	C393.360138,136.784805 395.875824,132.874924 398.291534,128.906448 
	C401.539093,123.571510 404.925171,118.312256 407.946228,112.851463 
	C409.667267,109.740562 410.779999,106.293098 412.522034,102.960037 
	C417.336578,101.148140 417.945526,95.416145 423.694427,93.943634 
	C427.829681,92.884445 430.744537,87.060860 434.192078,83.375099 
	C430.516174,79.253380 430.769165,78.785942 435.836517,76.828209 
	C437.449493,76.205055 438.860260,74.568748 439.908234,73.076317 
	C441.989899,70.111855 443.629761,66.836807 445.716858,63.876709 
	C446.486115,62.785690 447.935883,61.654598 449.187988,61.508549 
	C457.125946,60.582649 459.824158,56.480328 456.798615,49.137379 
	C459.577179,47.794487 462.671478,46.834930 465.114624,45.005722 
	C470.082001,41.286625 475.633820,37.713963 474.997314,30.166576 
z"/>
<path fill="#337AED" opacity="1.000000" stroke="none" 
	d="
M318.533142,30.097977 
	C317.492859,33.335300 315.952179,36.487556 314.496521,39.678589 
	C313.476227,41.915325 312.033783,44.139740 311.749237,46.487156 
	C311.375854,49.567635 306.982971,56.254120 304.296234,55.719097 
	C298.293854,54.523811 298.735016,57.733418 299.514587,61.630959 
	C299.602356,62.069660 299.355316,62.575329 299.142242,63.677189 
	C297.890625,63.447895 296.714111,63.213062 295.530640,63.021019 
	C294.364838,62.831841 293.192017,62.686020 291.197998,62.405018 
	C292.342438,65.140160 293.094543,66.937668 293.911957,68.891205 
	C289.608215,69.519409 285.902344,69.952103 282.247314,70.650772 
	C280.912415,70.905937 279.376221,71.491539 278.484406,72.443840 
	C274.424377,76.779160 274.595490,77.230415 281.693329,82.490295 
	C279.365356,82.331116 277.824738,82.028748 276.324127,82.165443 
	C273.469604,82.425461 271.312469,83.351936 271.109528,86.954636 
	C271.030334,88.360481 269.459320,89.834854 268.282379,90.986252 
	C266.923096,92.316017 264.057983,93.196312 263.919098,94.493652 
	C263.342255,99.881607 258.442413,101.742012 255.951767,105.475471 
	C254.775116,107.239273 253.678833,109.083817 252.784683,111.002907 
	C251.260193,114.274834 250.288696,117.008881 245.482224,117.861275 
	C242.787903,118.339081 240.822327,123.935356 238.952515,127.450996 
	C238.376068,128.534866 239.737198,130.583267 239.242035,131.793503 
	C238.660492,133.214859 236.940399,135.271469 235.859085,135.187408 
	C232.136917,134.898056 228.972198,134.752167 227.002411,138.792191 
	C226.600586,139.616318 224.699127,139.709259 223.258179,140.221268 
	C224.240982,145.512054 221.710831,147.088928 216.679642,148.324417 
	C210.102692,149.939499 207.547638,156.303497 205.034103,162.156723 
	C204.199921,164.099274 202.703598,165.766113 201.445984,167.512924 
	C201.068985,168.036560 200.231400,168.309204 200.017609,168.857727 
	C196.589859,177.653091 188.346268,181.682190 181.864670,187.471405 
	C180.992966,188.249969 180.718765,190.012604 180.685013,191.332779 
	C180.644745,192.908173 181.161636,194.497787 181.443619,196.118332 
	C171.843307,196.864166 163.416306,204.901733 161.274780,215.568436 
	C160.612396,218.867676 159.361755,220.262268 156.085388,220.022354 
	C152.506577,219.760284 151.115372,221.513336 150.945633,225.085098 
	C150.588684,232.595856 148.574707,234.395203 142.627869,234.466110 
	C140.057251,236.923965 138.017502,238.511063 136.453125,240.476532 
	C135.012802,242.286118 133.626251,244.377029 133.025696,246.566147 
	C131.825211,250.942215 130.278336,251.863129 125.896790,249.685059 
	C127.937225,257.292389 120.699493,256.380219 117.201569,259.043488 
	C116.969200,258.510010 116.981567,258.107910 117.208321,257.195496 
	C117.891823,255.361374 119.126801,253.297867 118.691719,252.847382 
	C117.162521,251.264114 115.059174,250.235382 113.173729,248.996185 
	C112.611366,242.337097 113.430779,235.144684 111.120842,229.160126 
	C108.503563,222.379318 107.088615,215.838440 106.877113,208.715698 
	C106.752159,204.507858 105.994621,200.249298 104.954544,196.157684 
	C103.915596,192.070541 102.175911,188.160843 100.725243,184.179977 
	C100.561089,183.729492 100.014137,183.265305 100.091507,182.902832 
	C101.426735,176.647049 97.660126,170.988174 98.478355,164.520813 
	C101.234871,164.421188 103.567566,165.022171 105.830589,164.824738 
	C110.618401,164.406967 115.960869,158.973663 115.574135,155.335419 
	C114.899979,148.993195 117.281921,145.728058 123.488419,144.407822 
	C124.097595,144.278229 125.136780,143.901840 125.153267,143.595673 
	C125.388458,139.229309 129.776382,137.857986 131.398727,134.843857 
	C133.277771,131.352814 134.767487,129.355927 137.829208,130.736237 
	C140.249130,127.952629 141.808105,124.884193 144.291748,123.589371 
	C148.430008,121.431923 149.547165,118.073471 150.530365,114.111870 
	C150.935501,112.479408 152.031433,110.391647 153.399841,109.736595 
	C158.540710,107.275711 162.578293,104.214890 163.417252,98.088623 
	C163.544556,97.158989 164.838593,95.665184 165.601273,95.660042 
	C172.218384,95.615318 173.277710,88.963882 177.359695,85.958824 
	C178.153671,85.374321 178.909836,83.797417 178.690964,82.928185 
	C177.054886,76.431038 183.037643,74.624138 186.290466,72.482567 
	C189.905441,70.102554 193.307053,68.859879 191.737106,62.807373 
	C194.639801,64.912979 196.631073,66.357445 198.156967,67.464325 
	C198.909424,64.626144 198.917664,61.097481 200.122299,60.626072 
	C207.272461,57.827957 207.233078,52.850452 205.312897,46.885540 
	C205.138229,46.342983 205.456604,45.641705 205.614212,44.535648 
	C207.848801,45.456646 209.751923,46.802414 211.714386,46.895351 
	C213.764130,46.992409 217.632263,45.988705 217.674271,45.285187 
	C218.011230,39.642693 221.063538,35.771446 224.808762,32.115772 
	C225.165604,31.767458 224.948044,30.830660 224.997162,30.167068 
	C256.021118,30.121204 287.045105,30.075340 318.533142,30.097977 
z"/>
<path fill="#367DF0" opacity="1.000000" stroke="none" 
	d="
M224.533142,30.098204 
	C224.948044,30.830660 225.165604,31.767458 224.808762,32.115772 
	C221.063538,35.771446 218.011230,39.642693 217.674271,45.285187 
	C217.632263,45.988705 213.764130,46.992409 211.714386,46.895351 
	C209.751923,46.802414 207.848801,45.456646 205.614212,44.535648 
	C205.456604,45.641705 205.138229,46.342983 205.312897,46.885540 
	C207.233078,52.850452 207.272461,57.827957 200.122299,60.626072 
	C198.917664,61.097481 198.909424,64.626144 198.156967,67.464325 
	C196.631073,66.357445 194.639801,64.912979 191.737106,62.807373 
	C193.307053,68.859879 189.905441,70.102554 186.290466,72.482567 
	C183.037643,74.624138 177.054886,76.431038 178.690964,82.928185 
	C178.909836,83.797417 178.153671,85.374321 177.359695,85.958824 
	C173.277710,88.963882 172.218384,95.615318 165.601273,95.660042 
	C164.838593,95.665184 163.544556,97.158989 163.417252,98.088623 
	C162.578293,104.214890 158.540710,107.275711 153.399841,109.736595 
	C152.031433,110.391647 150.935501,112.479408 150.530365,114.111870 
	C149.547165,118.073471 148.430008,121.431923 144.291748,123.589371 
	C141.808105,124.884193 140.249130,127.952629 137.829208,130.736237 
	C134.767487,129.355927 133.277771,131.352814 131.398727,134.843857 
	C129.776382,137.857986 125.388458,139.229309 125.153267,143.595673 
	C125.136780,143.901840 124.097595,144.278229 123.488419,144.407822 
	C117.281921,145.728058 114.899979,148.993195 115.574135,155.335419 
	C115.960869,158.973663 110.618401,164.406967 105.830589,164.824738 
	C103.567566,165.022171 101.234871,164.421188 98.550102,164.089691 
	C96.930077,160.265991 95.692307,156.535034 94.459061,152.802567 
	C94.305878,152.338943 94.076439,151.872711 94.051308,151.398727 
	C93.612976,143.132431 93.476196,134.836441 92.630737,126.613037 
	C92.343605,123.820267 90.252121,121.223648 89.049797,118.508774 
	C88.604683,117.503700 88.160370,116.438126 88.034210,115.362778 
	C87.584427,111.528717 88.067192,107.976677 85.595390,104.010971 
	C83.636719,100.868507 85.565071,95.303284 85.769341,90.771591 
	C80.920166,82.402168 78.716095,72.997955 79.094215,62.450714 
	C80.307411,61.185352 81.934044,60.625805 82.503998,59.521091 
	C84.909134,54.859264 88.826073,54.474823 92.990135,55.869827 
	C95.934990,56.856377 97.695900,56.737541 98.650848,53.412407 
	C96.986702,51.497025 92.163788,51.434967 94.092720,48.174580 
	C97.277451,47.436726 99.727180,47.338169 101.690834,46.310673 
	C105.136475,44.507710 108.382111,42.264317 111.484596,39.906769 
	C112.213120,39.353161 112.401627,37.547783 112.214890,36.421715 
	C111.251236,30.610497 111.180252,30.633556 117.070335,30.749762 
	C117.533722,30.758904 118.003204,30.458178 118.760666,30.097998 
	C121.827477,29.928417 124.603462,29.990370 127.379486,29.991899 
	C159.609375,30.009655 191.839249,30.018288 224.533142,30.098204 
M158.727570,99.577347 
	C159.318115,99.782181 159.908676,99.987015 160.499222,100.191849 
	C160.644150,99.748894 160.789062,99.305946 160.933975,98.862991 
	C160.256622,98.945351 159.579285,99.027702 158.727570,99.577347 
z"/>
<path fill="#286EE0" opacity="1.000000" stroke="none" 
	d="
M418.460999,290.904327 
	C417.790802,287.557434 418.083740,284.969635 422.508911,284.824860 
	C425.624481,284.722931 427.768585,283.191620 425.244751,279.591858 
	C424.752380,278.889557 424.708313,277.872925 424.286743,276.407837 
	C426.829285,276.915131 428.788177,277.306000 431.311859,277.809509 
	C430.060699,272.165985 433.232452,270.849304 437.508484,270.304718 
	C440.476349,269.926819 442.819824,268.833862 440.807739,265.047577 
	C439.503448,262.593170 440.757111,261.594452 443.156708,260.826050 
	C446.938965,259.614868 449.241577,257.187286 451.723389,253.577209 
	C457.273560,245.504089 465.378418,239.202560 471.062805,231.199341 
	C473.528137,227.728317 479.459717,225.637436 477.914337,219.225372 
	C477.624817,218.024277 481.280945,214.828247 483.545471,214.258392 
	C489.480774,212.764755 492.922302,209.404663 494.972809,203.776321 
	C495.671051,201.859756 497.742493,200.071732 499.632935,199.055054 
	C502.013550,197.774765 508.255310,189.691879 507.580139,186.889496 
	C506.702332,183.246124 508.301636,182.261398 511.349640,181.442719 
	C514.193909,180.678757 516.854980,179.232727 520.322266,177.783707 
	C518.044922,175.803528 516.685059,174.621094 515.325134,173.438644 
	C515.535217,173.074799 515.745300,172.710938 515.955383,172.347092 
	C517.025452,172.769516 518.065918,173.404144 519.173401,173.559097 
	C520.473694,173.741043 521.832275,173.506226 523.165649,173.452164 
	C523.078735,172.229614 523.050476,170.999344 522.890442,169.786453 
	C522.679810,168.189926 522.365601,166.607071 522.095947,165.018341 
	C523.637878,165.048172 525.185486,165.005676 526.720276,165.126556 
	C528.541504,165.269989 530.351562,165.554062 533.463745,165.936676 
	C532.068665,164.094589 531.720032,163.390305 531.164917,162.941376 
	C527.852905,160.262894 529.281677,158.730286 532.477966,157.952789 
	C535.566895,157.201385 537.011475,155.667053 538.637756,152.627899 
	C540.324097,149.476547 544.886963,147.816818 548.335083,145.742966 
	C548.622131,145.570297 550.291626,147.062958 550.803528,148.049347 
	C551.528687,149.446701 551.774475,151.092880 552.529541,152.814026 
	C553.622009,157.810593 551.488586,161.725922 548.991089,165.536911 
	C548.738770,165.921936 548.504578,166.379166 548.451843,166.825317 
	C547.939331,171.161469 548.792847,176.341278 546.693542,179.658264 
	C542.924255,185.613998 544.778320,193.058533 540.392151,198.579254 
	C539.712097,199.435287 540.288452,201.190155 539.966736,202.448303 
	C538.869446,206.739899 537.539368,210.972687 536.472839,215.271255 
	C535.528198,219.078400 535.098206,223.030472 533.943420,226.764664 
	C531.539673,234.537491 529.518494,242.548630 526.035645,249.838654 
	C521.245300,259.865479 513.125854,267.653198 504.837097,274.789093 
	C500.123566,278.846985 493.511047,280.607269 488.199341,284.083252 
	C479.718231,289.633301 470.079803,287.587219 461.084564,289.370941 
	C446.946259,292.174469 432.939758,290.013611 418.460999,290.904327 
z"/>
<path fill="#2F75E8" opacity="1.000000" stroke="none" 
	d="
M301.114166,229.958130 
	C300.793640,231.044250 300.178345,232.136459 300.200623,233.215500 
	C300.342407,240.086594 299.174591,241.203400 293.980804,240.156342 
	C292.469055,242.133698 291.334961,243.617493 290.200378,245.100952 
	C286.724884,249.645096 283.242432,254.183945 279.781250,258.738953 
	C279.285370,259.391571 279.032471,260.555084 278.429657,260.750824 
	C270.619904,263.286926 268.565948,270.592163 264.906769,276.624512 
	C264.114319,277.930939 262.375153,279.435181 261.013245,279.494293 
	C254.045074,279.796936 252.797668,285.108765 251.030823,290.470367 
	C226.307098,290.880524 201.616730,290.927765 176.419952,290.588928 
	C174.606049,289.802704 173.298569,289.402588 171.593109,288.999390 
	C170.133957,288.998779 169.072769,289.001221 168.011597,289.003662 
	C167.135635,285.477997 169.960892,285.974792 171.632294,286.096191 
	C176.295181,286.434753 178.606934,284.127686 180.106628,280.031464 
	C180.675797,278.476898 182.303833,277.285370 183.527786,276.003296 
	C184.434052,275.054016 186.282547,274.254974 186.315109,273.339355 
	C186.576279,265.992096 193.598785,266.888367 197.361603,263.857788 
	C199.784348,261.906494 202.726700,259.783478 203.755066,257.094543 
	C205.665817,252.098297 207.363434,247.960587 213.230515,246.102463 
	C218.641937,244.388641 219.107208,241.617264 216.569046,235.290985 
	C219.777954,234.207184 223.599045,233.867065 225.989273,231.839813 
	C228.340729,229.845490 229.240601,226.139694 230.995377,222.765854 
	C236.770660,222.622528 239.691437,220.429764 240.311249,213.640289 
	C240.601440,210.461533 241.980835,209.520538 244.435562,209.216873 
	C247.356110,208.855606 248.107819,207.163925 249.265259,204.584641 
	C251.369186,199.896179 254.759766,195.785110 258.220154,191.223877 
	C261.347992,192.742218 263.869049,194.469772 265.501007,195.588043 
	C267.404175,198.170303 268.547333,200.309189 270.226410,201.872467 
	C273.352722,204.783173 276.843964,207.297699 280.077942,210.098785 
	C281.773010,211.566971 282.964661,214.103912 284.866333,214.760681 
	C292.648529,217.448441 296.699982,223.837570 301.114166,229.958130 
z"/>
<path fill="#2D73E5" opacity="1.000000" stroke="none" 
	d="
M155.099594,369.429749 
	C155.254562,367.333099 155.861191,365.533203 155.783997,363.763123 
	C155.488220,356.979492 159.845108,351.315002 167.371246,349.546204 
	C166.745087,351.184296 166.217712,352.563934 165.497253,354.448700 
	C169.868759,353.682770 172.449158,351.901764 173.345413,347.733856 
	C174.444778,342.621460 175.827591,337.564453 177.275681,332.537598 
	C177.546631,331.597046 178.701843,330.911194 179.768204,330.035980 
	C189.155289,335.672668 198.985153,337.278564 209.690674,337.153168 
	C244.478653,336.745575 279.274628,337.019836 314.492950,337.456757 
	C313.371307,339.151154 312.001434,341.090332 310.241791,341.555695 
	C306.070984,342.658783 303.075439,344.624542 301.322479,348.707794 
	C300.667480,350.233551 298.931122,352.451782 297.760864,352.407806 
	C291.232361,352.162750 289.860474,358.041168 288.578094,361.585999 
	C286.258209,367.998688 280.709412,370.776642 276.828094,375.324921 
	C273.717499,378.970093 270.285187,382.340729 266.995667,385.833191 
	C241.598175,385.888489 216.198044,386.143463 190.805771,385.805817 
	C186.486526,385.748383 182.199600,383.153687 177.901657,381.719482 
	C177.306458,381.520844 176.746506,381.090027 176.148941,381.044128 
	C167.491898,380.379211 161.094727,375.564880 155.099594,369.429749 
z"/>
<path fill="#276CDF" opacity="1.000000" stroke="none" 
	d="
M419.996796,337.166473 
	C443.292480,337.112396 466.601685,336.617706 489.873810,337.331818 
	C495.302734,337.498383 501.563141,338.904358 506.261322,343.544403 
	C513.724854,350.915527 515.888916,359.143646 512.153809,368.894836 
	C511.390381,370.887787 511.402161,373.190948 510.561523,375.137299 
	C509.732330,377.057098 508.275299,378.705750 507.062958,380.519348 
	C504.672729,381.412903 501.099060,381.655090 499.687714,383.527252 
	C497.448212,386.498047 494.920837,385.970337 492.261871,385.972229 
	C455.149475,385.998749 418.037048,385.981262 380.380310,385.573181 
	C378.777252,383.080383 377.718536,380.988953 376.939911,379.450836 
	C379.545288,378.409973 382.838776,378.121613 383.558167,376.609009 
	C385.509735,372.505676 388.402710,370.171631 392.431183,368.538116 
	C393.827118,367.972076 395.007294,366.412445 395.855316,365.040436 
	C398.773834,360.318481 400.706940,354.728149 406.827148,353.833832 
	C406.187195,351.695892 404.781677,349.590027 405.339172,348.417358 
	C407.833405,343.170624 411.302460,350.339630 414.730103,347.710480 
	C414.540436,346.718750 414.402283,345.473694 414.048004,344.293518 
	C413.706573,343.155975 413.141937,342.085388 412.460571,340.479065 
	C418.525116,343.290283 419.142059,342.963165 419.996796,337.166473 
z"/>
<path fill="#2970E2" opacity="1.000000" stroke="none" 
	d="
M419.537598,337.099304 
	C419.142059,342.963165 418.525116,343.290283 412.460571,340.479065 
	C413.141937,342.085388 413.706573,343.155975 414.048004,344.293518 
	C414.402283,345.473694 414.540436,346.718750 414.730103,347.710480 
	C411.302460,350.339630 407.833405,343.170624 405.339172,348.417358 
	C404.781677,349.590027 406.187195,351.695892 406.827148,353.833832 
	C400.706940,354.728149 398.773834,360.318481 395.855316,365.040436 
	C395.007294,366.412445 393.827118,367.972076 392.431183,368.538116 
	C388.402710,370.171631 385.509735,372.505676 383.558167,376.609009 
	C382.838776,378.121613 379.545288,378.409973 376.939911,379.450836 
	C377.718536,380.988953 378.777252,383.080383 379.916107,385.502533 
	C342.638855,385.880585 305.281464,385.927917 267.459869,385.904236 
	C270.285187,382.340729 273.717499,378.970093 276.828094,375.324921 
	C280.709412,370.776642 286.258209,367.998688 288.578094,361.585999 
	C289.860474,358.041168 291.232361,352.162750 297.760864,352.407806 
	C298.931122,352.451782 300.667480,350.233551 301.322479,348.707794 
	C303.075439,344.624542 306.070984,342.658783 310.241791,341.555695 
	C312.001434,341.090332 313.371307,339.151154 314.957062,337.524231 
	C343.696259,337.112793 372.396729,337.055695 401.097229,337.008057 
	C407.090912,336.998108 413.084686,337.023224 419.537598,337.099304 
z"/>
<path fill="#246ADC" opacity="1.000000" stroke="none" 
	d="
M501.008667,433.524658 
	C501.253021,440.445251 499.331696,445.257629 492.402710,447.851776 
	C489.382812,448.982391 487.012878,452.477112 484.927734,455.323090 
	C482.083984,459.204498 480.175903,463.809082 477.121002,467.483643 
	C475.352020,469.611389 471.749268,470.125427 469.645203,472.087799 
	C467.371185,474.208679 465.103760,476.940125 464.248291,479.824799 
	C463.194092,483.379608 464.048065,486.565887 458.229736,487.311890 
	C454.495331,487.790680 451.114807,492.617096 448.012115,495.906372 
	C445.746765,498.307953 445.126160,502.273621 440.855713,502.711975 
	C440.228424,502.776367 439.742676,504.219971 439.096802,505.358215 
	C437.416626,504.941681 435.481537,504.539917 434.318695,503.370331 
	C431.937317,500.975281 430.369751,497.631165 427.730347,495.668701 
	C424.547455,493.302094 422.909943,490.692017 422.999359,486.837036 
	C423.018127,486.027893 423.182556,484.966858 422.759308,484.440704 
	C415.632294,475.580994 418.061584,464.829620 419.644867,455.752045 
	C421.390198,445.745178 425.917084,434.964447 435.976105,429.517151 
	C441.683411,426.426453 445.800476,421.128418 453.626312,420.346069 
	C459.472015,419.761688 465.527252,418.816986 471.311493,419.231262 
	C478.943665,419.777985 486.913757,420.526520 492.927582,426.632690 
	C495.336609,429.078705 498.275970,431.002441 501.008667,433.524658 
M493.497559,441.462341 
	C493.778015,440.982147 494.058441,440.501953 494.338898,440.021759 
	C493.901062,439.900818 493.463226,439.779846 493.025391,439.658875 
	C493.022430,440.215454 493.019470,440.772064 493.497559,441.462341 
z"/>
<path fill="#3177EA" opacity="1.000000" stroke="none" 
	d="
M113.134613,249.381226 
	C115.059174,250.235382 117.162521,251.264114 118.691719,252.847382 
	C119.126801,253.297867 117.891823,255.361374 117.185318,256.894470 
	C115.663780,254.657898 114.379631,252.212082 113.134613,249.381226 
z"/>
<path fill="#3177EA" opacity="1.000000" stroke="none" 
	d="
M171.991089,289.002441 
	C173.298569,289.402588 174.606049,289.802704 175.955933,290.518127 
	C174.927490,290.873657 173.856659,290.913910 172.404327,290.548004 
	C172.012268,289.762054 172.001678,289.382263 171.991089,289.002441 
z"/>
<path fill="#286EE0" opacity="1.000000" stroke="none" 
	d="
M171.593109,288.999390 
	C172.001678,289.382263 172.012268,289.762054 172.019775,290.426819 
	C171.344788,290.912384 170.672852,291.112976 169.862030,291.662170 
	C169.167908,291.216949 168.612656,290.423187 168.034500,289.316528 
	C169.072769,289.001221 170.133957,288.998779 171.593109,288.999390 
z"/>
<path fill="#2D73E5" opacity="1.000000" stroke="none" 
	d="
M500.000000,109.000153 
	C500.688354,109.176933 501.376678,109.353554 502.065033,109.530182 
	C501.963196,109.800117 501.861359,110.070053 501.759521,110.339989 
	C501.237122,110.063248 500.714752,109.786499 500.096191,109.254723 
	C500.000000,108.999695 500.000000,109.000000 500.000000,109.000153 
z"/>
<path fill="#2F75E8" opacity="1.000000" stroke="none" 
	d="
M474.533203,30.098457 
	C475.633820,37.713963 470.082001,41.286625 465.114624,45.005722 
	C462.671478,46.834930 459.577179,47.794487 456.798615,49.137379 
	C459.824158,56.480328 457.125946,60.582649 449.187988,61.508549 
	C447.935883,61.654598 446.486115,62.785690 445.716858,63.876709 
	C443.629761,66.836807 441.989899,70.111855 439.908234,73.076317 
	C438.860260,74.568748 437.449493,76.205055 435.836517,76.828209 
	C430.769165,78.785942 430.516174,79.253380 434.192078,83.375099 
	C430.744537,87.060860 427.829681,92.884445 423.694427,93.943634 
	C417.945526,95.416145 417.336578,101.148140 412.453979,102.559868 
	C411.305817,100.018890 410.672180,97.805420 409.838898,95.669838 
	C407.621613,89.987282 403.964569,84.910439 397.840088,84.254135 
	C391.076752,83.529366 383.247711,82.063324 378.864441,90.141075 
	C378.028290,91.681976 377.602814,94.097580 376.346375,94.649590 
	C369.681335,97.577927 370.558777,105.312126 366.193024,109.833702 
	C362.924469,113.218910 361.430817,118.275658 358.944519,122.468140 
	C355.052429,129.031128 350.939636,135.462936 347.018524,142.009094 
	C344.849518,145.630112 343.339203,149.743973 340.714905,152.971298 
	C336.619171,158.008224 334.831329,164.309555 329.548798,168.974380 
	C325.169006,172.842010 323.671417,179.993057 320.954163,185.716629 
	C319.271332,189.261276 315.497437,191.267044 314.180450,189.112701 
	C310.410980,182.946716 302.265747,181.157059 299.521149,174.072617 
	C299.303375,173.510498 298.661011,172.857910 298.101074,172.722504 
	C292.148438,171.282928 289.348541,166.288818 285.882996,162.040741 
	C290.768951,158.564148 297.076233,156.136612 295.538849,148.074280 
	C295.385284,147.268936 297.067230,145.957397 298.093018,145.120621 
	C299.569519,143.916153 301.565582,143.212143 302.734161,141.795013 
	C305.164703,138.847488 306.241425,134.657959 311.178650,134.284180 
	C311.967865,134.224426 312.712982,131.648041 313.217896,130.147400 
	C314.492279,126.359978 315.237854,122.341995 320.787018,122.594284 
	C322.009216,122.649841 323.705383,121.008614 324.519745,119.727066 
	C327.362183,115.253922 329.685822,110.439629 332.677246,106.077728 
	C334.063782,104.055984 336.326569,101.891518 338.562561,101.365128 
	C342.184967,100.512344 343.566010,98.198524 345.341644,95.458839 
	C349.730530,88.687080 353.162781,81.065163 360.686737,76.799492 
	C361.694824,76.227966 362.109985,74.694534 363.001495,73.809853 
	C363.899750,72.918457 365.058838,71.638008 366.087402,71.652870 
	C369.086609,71.696213 370.391449,70.574753 369.256104,67.784218 
	C367.424530,63.282318 370.271759,62.336143 373.512177,62.141602 
	C377.564941,61.898293 380.338623,61.234604 377.995605,56.260517 
	C377.737701,55.713100 378.149963,54.218849 378.435211,54.166576 
	C379.249786,54.017315 380.367706,54.113831 380.995605,54.596214 
	C383.908539,56.833912 385.395966,55.670784 386.438843,52.769142 
	C380.877716,48.545818 381.337067,49.085361 386.444305,44.737301 
	C390.652893,41.154331 395.390350,37.296917 395.995483,30.551003 
	C422.021423,30.121311 448.045258,30.075825 474.533203,30.098457 
z"/>
<path fill="#367DF0" opacity="1.000000" stroke="none" 
	d="
M109.957764,18.624058 
	C108.516907,18.512112 105.250549,20.096321 106.901718,16.039167 
	C108.053169,16.740944 108.946960,17.508457 109.957764,18.624058 
z"/>
<path fill="#000000" opacity="1.000000" stroke="none" 
	d="
M285.586121,161.912354 
	C289.348541,166.288818 292.148438,171.282928 298.101074,172.722504 
	C298.661011,172.857910 299.303375,173.510498 299.521149,174.072617 
	C302.265747,181.157059 310.410980,182.946716 314.180450,189.112701 
	C315.497437,191.267044 319.271332,189.261276 320.954163,185.716629 
	C323.671417,179.993057 325.169006,172.842010 329.548798,168.974380 
	C334.831329,164.309555 336.619171,158.008224 340.714905,152.971298 
	C343.339203,149.743973 344.849518,145.630112 347.018524,142.009094 
	C350.939636,135.462936 355.052429,129.031128 358.944519,122.468140 
	C361.430817,118.275658 362.924469,113.218910 366.193024,109.833702 
	C370.558777,105.312126 369.681335,97.577927 376.346375,94.649590 
	C377.602814,94.097580 378.028290,91.681976 378.864441,90.141075 
	C383.247711,82.063324 391.076752,83.529366 397.840088,84.254135 
	C403.964569,84.910439 407.621613,89.987282 409.838898,95.669838 
	C410.672180,97.805420 411.305817,100.018890 412.098572,102.597015 
	C410.779999,106.293098 409.667267,109.740562 407.946228,112.851463 
	C404.925171,118.312256 401.539093,123.571510 398.291534,128.906448 
	C395.875824,132.874924 393.360138,136.784805 391.029266,140.802155 
	C388.314423,145.481277 385.742920,150.243851 383.126465,154.979706 
	C380.079773,160.494370 377.178650,166.094635 373.965424,171.510040 
	C372.184998,174.510742 369.725311,177.102646 367.868164,180.064651 
	C362.032288,189.372482 356.221771,198.700256 350.625031,208.152710 
	C346.480804,215.152069 343.094330,222.635254 338.545471,229.343613 
	C336.556732,232.276474 332.660950,234.096542 329.341278,235.883301 
	C327.119476,237.079147 324.416290,237.475708 321.877808,237.969116 
	C315.646301,239.180359 310.744751,237.116150 306.811279,232.054565 
	C305.864777,230.836578 303.589539,230.651138 301.519775,229.974487 
	C296.699982,223.837570 292.648529,217.448441 284.866333,214.760681 
	C282.964661,214.103912 281.773010,211.566971 280.077942,210.098785 
	C276.843964,207.297699 273.352722,204.783173 270.226410,201.872467 
	C268.547333,200.309189 267.404175,198.170303 265.501007,195.588043 
	C263.869049,194.469772 261.347992,192.742218 258.470642,190.986298 
	C254.174881,187.103989 252.140991,181.637817 245.953552,179.556320 
	C243.006378,178.564880 240.974564,174.026978 239.124542,170.757996 
	C234.043243,161.779388 238.641525,154.898865 244.688934,148.684387 
	C247.551376,145.742859 251.328140,145.088196 255.532257,144.837814 
	C263.146484,144.384323 268.601501,147.344009 273.650085,152.719315 
	C276.976227,156.260773 281.372284,158.797409 285.586121,161.912354 
z"/>
<path fill="#337AED" opacity="1.000000" stroke="none" 
	d="
M158.814758,99.343704 
	C159.579285,99.027702 160.256622,98.945351 160.933975,98.862991 
	C160.789062,99.305946 160.644150,99.748894 160.499222,100.191849 
	C159.908676,99.987015 159.318115,99.782181 158.814758,99.343704 
z"/>
<path fill="#2368DA" opacity="1.000000" stroke="none" 
	d="
M493.257050,441.395508 
	C493.019470,440.772064 493.022430,440.215454 493.025391,439.658875 
	C493.463226,439.779846 493.901062,439.900818 494.338898,440.021759 
	C494.058441,440.501953 493.778015,440.982147 493.257050,441.395508 
z"/>
</svg>